<svg width="118" height="50" viewBox="0 0 118 50" fill="none" xmlns="http://www.w3.org/2000/svg">
<rect x="0.5" y="1" width="117" height="48" rx="24" fill="#1C1C1C"/>
<rect x="0.5" y="1" width="117" height="48" rx="24" stroke="#262626"/>
<path d="M21.7148 30.5V20.7H23.2268V29.044H27.8188V30.5H21.7148ZM32.8882 30.64C32.1322 30.64 31.4602 30.4813 30.8722 30.164C30.2935 29.8373 29.8362 29.394 29.5002 28.834C29.1735 28.274 29.0102 27.63 29.0102 26.902C29.0102 26.3233 29.1035 25.796 29.2902 25.32C29.4769 24.844 29.7335 24.4333 30.0602 24.088C30.3962 23.7333 30.7929 23.4627 31.2502 23.276C31.7169 23.08 32.2209 22.982 32.7622 22.982C33.2382 22.982 33.6815 23.0753 34.0922 23.262C34.5029 23.4393 34.8575 23.6867 35.1562 24.004C35.4642 24.3213 35.6975 24.6993 35.8562 25.138C36.0242 25.5673 36.1035 26.0387 36.0942 26.552L36.0802 27.168H30.0742L29.7522 26.02H34.8342L34.6242 26.258V25.922C34.5962 25.614 34.4935 25.3387 34.3162 25.096C34.1389 24.8533 33.9149 24.662 33.6442 24.522C33.3735 24.382 33.0795 24.312 32.7622 24.312C32.2582 24.312 31.8335 24.41 31.4882 24.606C31.1429 24.7927 30.8815 25.0727 30.7042 25.446C30.5269 25.81 30.4382 26.2627 30.4382 26.804C30.4382 27.3173 30.5455 27.7653 30.7602 28.148C30.9749 28.5213 31.2782 28.8107 31.6702 29.016C32.0622 29.2213 32.5149 29.324 33.0282 29.324C33.3922 29.324 33.7282 29.2633 34.0362 29.142C34.3535 29.0207 34.6942 28.8013 35.0582 28.484L35.7862 29.506C35.5622 29.73 35.2869 29.926 34.9602 30.094C34.6429 30.262 34.3022 30.3973 33.9382 30.5C33.5835 30.5933 33.2335 30.64 32.8882 30.64ZM40.4893 30.64C39.8827 30.64 39.3273 30.472 38.8233 30.136C38.3287 29.8 37.932 29.3427 37.6333 28.764C37.3347 28.1853 37.1853 27.532 37.1853 26.804C37.1853 26.0667 37.3347 25.4133 37.6333 24.844C37.9413 24.2653 38.352 23.8127 38.8653 23.486C39.388 23.1593 39.9713 22.996 40.6153 22.996C40.998 22.996 41.348 23.052 41.6653 23.164C41.9827 23.276 42.258 23.4347 42.4913 23.64C42.734 23.836 42.93 24.0647 43.0793 24.326C43.238 24.5873 43.336 24.8673 43.3733 25.166L43.0513 25.054V23.15H44.5073V30.5H43.0513V28.75L43.3873 28.652C43.3313 28.904 43.2147 29.1513 43.0373 29.394C42.8693 29.6273 42.65 29.8373 42.3793 30.024C42.118 30.2107 41.824 30.36 41.4973 30.472C41.18 30.584 40.844 30.64 40.4893 30.64ZM40.8673 29.31C41.306 29.31 41.6933 29.2027 42.0293 28.988C42.3653 28.7733 42.6267 28.4793 42.8133 28.106C43.0093 27.7233 43.1073 27.2893 43.1073 26.804C43.1073 26.328 43.0093 25.9033 42.8133 25.53C42.6267 25.1567 42.3653 24.8627 42.0293 24.648C41.6933 24.4333 41.306 24.326 40.8673 24.326C40.438 24.326 40.0553 24.4333 39.7193 24.648C39.3927 24.8627 39.1313 25.1567 38.9353 25.53C38.7487 25.9033 38.6553 26.328 38.6553 26.804C38.6553 27.2893 38.7487 27.7233 38.9353 28.106C39.1313 28.4793 39.3927 28.7733 39.7193 28.988C40.0553 29.2027 40.438 29.31 40.8673 29.31ZM46.5207 30.5V23.15H47.9767V25.46L47.8367 24.9C47.9394 24.5453 48.112 24.2233 48.3547 23.934C48.6067 23.6447 48.8914 23.416 49.2087 23.248C49.5354 23.08 49.8714 22.996 50.2167 22.996C50.3754 22.996 50.5247 23.01 50.6647 23.038C50.814 23.066 50.9307 23.0987 51.0147 23.136L50.6367 24.704C50.5247 24.6573 50.3987 24.62 50.2587 24.592C50.128 24.5547 49.9974 24.536 49.8667 24.536C49.6147 24.536 49.372 24.5873 49.1387 24.69C48.9147 24.7833 48.714 24.9187 48.5367 25.096C48.3687 25.264 48.2334 25.4647 48.1307 25.698C48.028 25.922 47.9767 26.1693 47.9767 26.44V30.5H46.5207ZM52.1672 30.5V23.15H53.6092V24.662L53.3572 24.83C53.4505 24.5033 53.6325 24.2047 53.9032 23.934C54.1738 23.654 54.4958 23.43 54.8692 23.262C55.2425 23.0847 55.6252 22.996 56.0172 22.996C56.5772 22.996 57.0438 23.108 57.4172 23.332C57.7905 23.5467 58.0705 23.878 58.2572 24.326C58.4438 24.774 58.5372 25.3387 58.5372 26.02V30.5H57.0952V26.118C57.0952 25.698 57.0392 25.3527 56.9272 25.082C56.8152 24.802 56.6425 24.6013 56.4092 24.48C56.1758 24.3493 55.8865 24.2933 55.5412 24.312C55.2612 24.312 55.0045 24.3587 54.7712 24.452C54.5378 24.536 54.3325 24.6573 54.1552 24.816C53.9872 24.9747 53.8518 25.1613 53.7492 25.376C53.6558 25.5813 53.6092 25.8053 53.6092 26.048V30.5H52.8952C52.7738 30.5 52.6525 30.5 52.5312 30.5C52.4098 30.5 52.2885 30.5 52.1672 30.5ZM64.7812 30.5V20.7H66.2652L69.8352 26.51L69.1212 26.496L72.7332 20.7H74.1332V30.5H72.6212V26.482C72.6212 25.642 72.6398 24.886 72.6772 24.214C72.7238 23.542 72.7985 22.8747 72.9012 22.212L73.0972 22.73L69.8912 27.686H68.9672L65.8592 22.786L66.0132 22.212C66.1158 22.8373 66.1858 23.4813 66.2232 24.144C66.2698 24.7973 66.2932 25.5767 66.2932 26.482V30.5H64.7812ZM79.8208 30.64C79.1021 30.64 78.4581 30.4767 77.8888 30.15C77.3288 29.814 76.8855 29.3613 76.5588 28.792C76.2321 28.2133 76.0688 27.5553 76.0688 26.818C76.0688 26.0807 76.2321 25.4273 76.5588 24.858C76.8855 24.2793 77.3288 23.8267 77.8888 23.5C78.4581 23.164 79.1021 22.996 79.8208 22.996C80.5301 22.996 81.1648 23.164 81.7248 23.5C82.2941 23.8267 82.7421 24.2793 83.0688 24.858C83.3955 25.4273 83.5588 26.0807 83.5588 26.818C83.5588 27.5553 83.3955 28.2133 83.0688 28.792C82.7421 29.3613 82.2941 29.814 81.7248 30.15C81.1648 30.4767 80.5301 30.64 79.8208 30.64ZM79.8208 29.324C80.2595 29.324 80.6515 29.2167 80.9968 29.002C81.3421 28.778 81.6128 28.4793 81.8088 28.106C82.0048 27.7233 82.0981 27.294 82.0888 26.818C82.0981 26.3327 82.0048 25.9033 81.8088 25.53C81.6128 25.1473 81.3421 24.8487 80.9968 24.634C80.6515 24.4193 80.2595 24.312 79.8208 24.312C79.3821 24.312 78.9855 24.424 78.6308 24.648C78.2855 24.8627 78.0148 25.1613 77.8188 25.544C77.6228 25.9173 77.5295 26.342 77.5388 26.818C77.5295 27.294 77.6228 27.7233 77.8188 28.106C78.0148 28.4793 78.2855 28.778 78.6308 29.002C78.9855 29.2167 79.3821 29.324 79.8208 29.324ZM85.1301 30.5V23.15H86.5861V25.46L86.4461 24.9C86.5487 24.5453 86.7214 24.2233 86.9641 23.934C87.2161 23.6447 87.5007 23.416 87.8181 23.248C88.1447 23.08 88.4807 22.996 88.8261 22.996C88.9847 22.996 89.1341 23.01 89.2741 23.038C89.4234 23.066 89.5401 23.0987 89.6241 23.136L89.2461 24.704C89.1341 24.6573 89.0081 24.62 88.8681 24.592C88.7374 24.5547 88.6067 24.536 88.4761 24.536C88.2241 24.536 87.9814 24.5873 87.7481 24.69C87.5241 24.7833 87.3234 24.9187 87.1461 25.096C86.9781 25.264 86.8427 25.4647 86.7401 25.698C86.6374 25.922 86.5861 26.1693 86.5861 26.44V30.5H85.1301ZM93.8921 30.64C93.1361 30.64 92.4641 30.4813 91.8761 30.164C91.2974 29.8373 90.8401 29.394 90.5041 28.834C90.1774 28.274 90.0141 27.63 90.0141 26.902C90.0141 26.3233 90.1074 25.796 90.2941 25.32C90.4808 24.844 90.7374 24.4333 91.0641 24.088C91.4001 23.7333 91.7968 23.4627 92.2541 23.276C92.7208 23.08 93.2248 22.982 93.7661 22.982C94.2421 22.982 94.6854 23.0753 95.0961 23.262C95.5068 23.4393 95.8614 23.6867 96.1601 24.004C96.4681 24.3213 96.7014 24.6993 96.8601 25.138C97.0281 25.5673 97.1074 26.0387 97.0981 26.552L97.0841 27.168H91.0781L90.7561 26.02H95.8381L95.6281 26.258V25.922C95.6001 25.614 95.4974 25.3387 95.3201 25.096C95.1428 24.8533 94.9188 24.662 94.6481 24.522C94.3774 24.382 94.0834 24.312 93.7661 24.312C93.2621 24.312 92.8374 24.41 92.4921 24.606C92.1468 24.7927 91.8854 25.0727 91.7081 25.446C91.5308 25.81 91.4421 26.2627 91.4421 26.804C91.4421 27.3173 91.5494 27.7653 91.7641 28.148C91.9788 28.5213 92.2821 28.8107 92.6741 29.016C93.0661 29.2213 93.5188 29.324 94.0321 29.324C94.3961 29.324 94.7321 29.2633 95.0401 29.142C95.3574 29.0207 95.6981 28.8013 96.0621 28.484L96.7901 29.506C96.5661 29.73 96.2908 29.926 95.9641 30.094C95.6468 30.262 95.3061 30.3973 94.9421 30.5C94.5874 30.5933 94.2374 30.64 93.8921 30.64Z" fill="white"/>
</svg>
