<svg width="134" height="35" viewBox="0 0 134 35" fill="none" xmlns="http://www.w3.org/2000/svg">
<path d="M9.27214 17.5749L17.7721 9.07487L26.2721 17.5749L17.7721 26.0749L9.27214 17.5749Z" fill="#CAFF33"/>
<path d="M31.9388 11.9082L26.2721 17.5749V9.07487H17.7721L23.4388 3.4082H31.9388V11.9082Z" fill="#CAFF33"/>
<path d="M31.9388 23.2415L26.2721 17.5749V26.0749H17.7721L23.4388 31.7415H31.9388V23.2415Z" fill="#CAFF33"/>
<path d="M3.60547 23.2415L9.27214 17.5749V26.0749H17.7721L12.1055 31.7415H3.60547L3.60547 23.2415Z" fill="#CAFF33"/>
<path d="M3.60547 11.9082L9.27214 17.5749V9.07487H17.7721L12.1055 3.4082H3.60547L3.60547 11.9082Z" fill="#CAFF33"/>
<path d="M51.2212 10.208L45.9978 19.4312V25.5072H43.5359V19.4312L38.3125 10.208H41.1169L44.7775 16.9834L48.4168 10.208H51.2212Z" fill="white"/>
<path d="M55.6027 25.7913C54.0328 25.7913 52.6984 25.2377 51.5995 24.1303C50.5006 23.0229 49.9511 21.6606 49.9511 20.0432C49.9511 18.4259 50.5006 17.0635 51.5995 15.9561C52.6984 14.8488 54.0328 14.2951 55.6027 14.2951C57.1868 14.2951 58.5212 14.8488 59.6059 15.9561C60.7048 17.0635 61.2542 18.4259 61.2542 20.0432C61.2542 21.6606 60.7048 23.0229 59.6059 24.1303C58.5212 25.2377 57.1868 25.7913 55.6027 25.7913ZM53.2264 22.5129C53.8687 23.1686 54.6607 23.4965 55.6027 23.4965C56.5446 23.4965 57.3367 23.1686 57.9789 22.5129C58.6211 21.8573 58.9422 21.034 58.9422 20.0432C58.9422 19.0524 58.6211 18.2292 57.9789 17.5735C57.3367 16.9178 56.5446 16.59 55.6027 16.59C54.6607 16.59 53.8687 16.9178 53.2264 17.5735C52.5842 18.2292 52.2631 19.0524 52.2631 20.0432C52.2631 21.034 52.5842 21.8573 53.2264 22.5129Z" fill="white"/>
<path d="M70.5591 14.5792H72.8711V25.5072H70.5591V24.1084C69.8598 25.2304 68.7537 25.7913 67.241 25.7913C66.0136 25.7913 65.0217 25.3906 64.2653 24.5893C63.5089 23.7879 63.1307 22.6878 63.1307 21.289V14.5792H65.4427V21.0486C65.4427 21.8645 65.6568 22.4911 66.085 22.9282C66.5131 23.3653 67.0982 23.5839 67.8404 23.5839C68.6538 23.5839 69.3103 23.3289 69.8098 22.8189C70.3094 22.2944 70.5591 21.5003 70.5591 20.4366V14.5792Z" fill="white"/>
<path d="M77.8866 16.4151C78.4718 15.06 79.5707 14.3825 81.1834 14.3825V16.9397C80.2985 16.8814 79.5279 17.0999 78.8714 17.5953C78.2149 18.0762 77.8866 18.8776 77.8866 19.9995V25.5072H75.5746V14.5792H77.8866V16.4151Z" fill="white"/>
<path d="M91.8613 17.5735C92.5178 17.9232 93.0316 18.404 93.4027 19.016C93.7737 19.6279 93.9593 20.3346 93.9593 21.136C93.9593 22.3891 93.524 23.4309 92.6534 24.2614C91.7828 25.0919 90.7196 25.5072 89.4637 25.5072H83.0415V10.208H88.9927C90.2201 10.208 91.2548 10.616 92.0968 11.4319C92.9531 12.2333 93.3813 13.2387 93.3813 14.4481C93.3813 15.774 92.8746 16.8158 91.8613 17.5735ZM88.9927 12.5685H85.5033V16.59H88.9927C89.5351 16.59 89.9917 16.4005 90.3628 16.0217C90.7339 15.6283 90.9194 15.1475 90.9194 14.5792C90.9194 14.011 90.7339 13.5374 90.3628 13.1586C89.9917 12.7652 89.5351 12.5685 88.9927 12.5685ZM89.4637 23.1468C90.0346 23.1468 90.5127 22.9428 90.898 22.5348C91.2976 22.1122 91.4974 21.6023 91.4974 21.0049C91.4974 20.4075 91.2976 19.9048 90.898 19.4968C90.5127 19.0743 90.0346 18.863 89.4637 18.863H85.5033V23.1468H89.4637Z" fill="white"/>
<path d="M104.54 14.5792H106.852V25.5072H104.54V23.9336C103.669 25.1721 102.42 25.7913 100.793 25.7913C99.3233 25.7913 98.0674 25.2377 97.0255 24.1303C95.9837 23.0083 95.4628 21.646 95.4628 20.0432C95.4628 18.4259 95.9837 17.0635 97.0255 15.9561C98.0674 14.8488 99.3233 14.2951 100.793 14.2951C102.42 14.2951 103.669 14.9071 104.54 16.131V14.5792ZM98.7381 22.5567C99.3803 23.2123 100.187 23.5402 101.157 23.5402C102.128 23.5402 102.934 23.2123 103.576 22.5567C104.218 21.8864 104.54 21.0486 104.54 20.0432C104.54 19.0378 104.218 18.2073 103.576 17.5516C102.934 16.8814 102.128 16.5462 101.157 16.5462C100.187 16.5462 99.3803 16.8814 98.7381 17.5516C98.0959 18.2073 97.7748 19.0378 97.7748 20.0432C97.7748 21.0486 98.0959 21.8864 98.7381 22.5567Z" fill="white"/>
<path d="M115.177 14.2951C116.404 14.2951 117.396 14.6958 118.152 15.4972C118.909 16.2985 119.287 17.3986 119.287 18.7974V25.5072H116.975V19.0378C116.975 18.2219 116.761 17.5953 116.333 17.1582C115.904 16.7211 115.319 16.5025 114.577 16.5025C113.764 16.5025 113.107 16.7648 112.608 17.2894C112.108 17.7993 111.858 18.5861 111.858 19.6498V25.5072H109.546V14.5792H111.858V15.978C112.558 14.8561 113.664 14.2951 115.177 14.2951Z" fill="white"/>
<path d="M133.229 25.5072H130.296L124.388 18.2292V25.5072H121.926V10.208H124.388V17.0708L130.082 10.208H133.015L126.957 17.6609L133.229 25.5072Z" fill="white"/>
</svg>
